<?xml version="1.0" standalone="no"?>
<!DOCTYPE svg PUBLIC "-//W3C//DTD SVG 20010904//EN"
 "http://www.w3.org/TR/2001/REC-SVG-20010904/DTD/svg10.dtd">
<svg version="1.0" xmlns="http://www.w3.org/2000/svg"
 width="322.000000pt" height="130.000000pt" viewBox="0 0 322.000000 130.000000"
 preserveAspectRatio="xMidYMid meet">

<g transform="translate(0.000000,130.000000) scale(0.100000,-0.100000)"
fill="#000000" stroke="none">
<path d="M30 640 l0 -630 1585 0 1585 0 0 630 0 630 -1585 0 -1585 0 0 -630z
m3130 -5 l0 -595 -1550 0 -1550 0 0 595 0 595 1550 0 1550 0 0 -595z"/>
<path d="M1837 1070 c-63 -50 -59 -143 10 -220 l45 -50 -51 0 -51 0 0 -37 c0
-105 40 -153 127 -153 65 0 95 24 113 90 18 66 -2 130 -56 186 -24 24 -44 47
-44 49 0 3 23 5 51 5 l52 0 -6 47 c-7 67 -48 103 -116 103 -33 0 -56 -6 -74
-20z m134 -13 c21 -16 39 -51 39 -76 0 -17 -6 -21 -35 -21 -23 0 -35 5 -35 14
0 20 -25 37 -44 30 -31 -12 -18 -50 34 -100 70 -68 88 -108 80 -177 -8 -75
-29 -97 -91 -97 -67 0 -98 28 -106 98 l-6 52 37 0 c34 0 36 -2 36 -33 0 -54
43 -79 59 -35 13 37 -5 77 -63 138 -30 32 -58 69 -62 84 -10 42 4 93 33 116
29 23 98 27 124 7z m-51 -88 c0 -11 -4 -17 -10 -14 -5 3 -10 13 -10 21 0 8 5
14 10 14 6 0 10 -9 10 -21z m0 -225 c0 -21 -4 -33 -10 -29 -5 3 -10 22 -10 41
0 21 4 33 10 29 6 -3 10 -22 10 -41z"/>
<path d="M2047 1083 c-4 -3 -7 -28 -7 -55 0 -47 1 -48 30 -48 l30 0 0 -185 0
-185 55 0 55 0 0 185 0 185 30 0 c27 0 30 3 30 33 0 77 -1 77 -114 77 -57 0
-106 -3 -109 -7z m193 -48 c0 -31 -3 -35 -25 -35 l-25 0 0 -185 0 -185 -35 0
-35 0 0 185 0 185 -25 0 c-22 0 -25 4 -25 35 l0 35 85 0 85 0 0 -35z"/>
<path d="M2318 1061 l-33 -29 -3 -154 c-4 -170 4 -216 45 -247 31 -25 100 -28
142 -6 46 23 56 63 56 225 0 202 -21 240 -129 240 -36 0 -52 -6 -78 -29z m144
-2 c36 -19 48 -70 48 -197 0 -143 -5 -174 -36 -207 -32 -35 -101 -35 -141 -1
l-28 24 -3 166 -3 166 30 30 c23 24 38 30 71 30 23 0 50 -5 62 -11z"/>
<path d="M2382 998 c-19 -19 -17 -282 3 -298 8 -7 22 -10 30 -6 23 8 18 309
-5 314 -9 1 -21 -3 -28 -10z m28 -148 c0 -87 -4 -140 -10 -140 -6 0 -10 51
-10 133 0 117 3 147 17 147 2 0 3 -63 3 -140z"/>
<path d="M2559 1086 c-2 -3 -4 -109 -3 -238 l2 -233 55 -3 56 -3 4 108 3 108
2 -107 2 -108 55 0 55 0 0 113 c0 64 -4 117 -10 123 -7 7 -6 20 5 40 32 61 13
164 -36 189 -26 14 -179 22 -190 11z m192 -35 c18 -14 23 -31 27 -79 4 -58 3
-63 -26 -90 -30 -28 -30 -28 -8 -38 19 -8 21 -18 24 -111 l3 -103 -36 0 -35 0
0 99 c0 99 -4 111 -41 111 -5 0 -9 -47 -9 -105 l0 -105 -35 0 -35 0 0 220 0
220 74 0 c57 0 79 -4 97 -19z"/>
<path d="M2650 951 c0 -48 2 -51 25 -51 18 0 26 7 31 24 11 45 1 71 -28 74
-27 3 -28 2 -28 -47z m40 -1 c0 -16 -4 -30 -10 -30 -5 0 -10 14 -10 30 0 17 5
30 10 30 6 0 10 -13 10 -30z"/>
<path d="M2830 1088 c0 -2 -1 -109 -2 -238 l-1 -235 107 -3 107 -3 -3 53 -3
53 -48 3 -48 3 3 42 c3 42 3 42 43 42 l40 0 0 50 0 50 -42 3 c-42 3 -43 4 -43
38 0 34 0 34 45 34 l45 0 0 55 0 55 -100 0 c-55 0 -100 -1 -100 -2z m180 -53
c0 -35 0 -35 -45 -35 l-45 0 0 -55 0 -55 40 0 c39 0 40 -1 40 -35 0 -34 -1
-35 -40 -35 l-40 0 0 -60 0 -60 45 0 c45 0 45 0 45 -35 l0 -35 -80 0 -80 0 0
220 0 220 80 0 80 0 0 -35z"/>
<path d="M230 850 l0 -230 90 0 90 0 0 45 0 45 -51 0 -50 0 3 53 3 52 43 3
c42 3 42 3 42 43 l0 39 -45 0 -45 0 0 45 0 45 45 0 45 0 0 45 0 45 -85 0 -85
0 0 -230z"/>
<path d="M449 1076 c-3 -3 7 -104 22 -223 16 -120 28 -221 29 -225 0 -5 27 -8
60 -8 33 0 60 3 60 8 1 4 13 105 29 225 15 119 25 219 23 222 -3 3 -22 5 -42
5 l-37 0 -13 -150 c-7 -83 -15 -148 -18 -146 -2 3 -12 69 -21 148 l-16 143
-35 3 c-20 2 -38 1 -41 -2z"/>
<path d="M771 1066 c-44 -24 -50 -51 -51 -207 0 -82 5 -160 11 -178 28 -79
157 -82 194 -6 19 42 22 309 3 350 -22 50 -104 71 -157 41z m77 -215 c2 -121
0 -142 -13 -147 -9 -4 -18 -4 -20 -2 -9 8 -10 273 -1 286 4 7 13 11 19 9 8 -2
13 -49 15 -146z"/>
<path d="M1028 1051 l-33 -29 -4 -132 c-4 -163 3 -215 34 -246 30 -30 83 -32
118 -4 25 20 25 20 30 0 3 -11 12 -20 21 -20 14 0 16 18 16 130 l0 130 -50 0
-50 0 0 -35 c0 -19 5 -35 11 -35 6 0 9 -21 7 -52 -3 -45 -6 -53 -23 -53 -19 0
-20 7 -20 145 0 138 1 145 20 145 16 0 21 -8 23 -37 3 -37 4 -38 43 -38 39 0
39 0 39 40 0 52 -24 98 -56 110 -48 19 -92 12 -126 -19z"/>
<path d="M1262 883 c3 -211 7 -230 55 -252 30 -14 89 -14 114 -1 42 23 49 58
49 260 l0 190 -40 0 -40 0 0 -167 c0 -185 -4 -216 -29 -211 -14 3 -17 28 -21
188 l-5 185 -43 3 -44 3 4 -198z"/>
<path d="M1530 850 l0 -230 95 0 95 0 0 45 0 45 -51 0 -50 0 3 53 3 52 43 3
c42 3 42 3 42 43 l0 39 -45 0 -45 0 0 45 0 45 45 0 45 0 0 45 0 45 -90 0 -90
0 0 -230z"/>
<path d="M740 320 c0 -47 2 -50 25 -50 14 0 25 5 25 10 0 6 -7 10 -15 10 -8 0
-15 5 -15 10 0 6 7 10 15 10 8 0 15 5 15 10 0 6 -7 10 -15 10 -8 0 -15 5 -15
10 0 6 7 10 15 10 8 0 15 5 15 10 0 6 -11 10 -25 10 -23 0 -25 -3 -25 -50z"/>
<path d="M930 350 c-25 -25 -25 -32 -2 -60 14 -18 25 -22 45 -16 36 9 34 27
-2 20 -33 -7 -45 6 -36 37 6 17 13 20 36 15 30 -6 40 7 13 18 -25 9 -33 7 -54
-14z"/>
<path d="M1140 350 c-11 -11 -20 -23 -20 -28 0 -18 33 -52 50 -52 24 0 50 26
50 50 0 22 -26 50 -46 50 -8 0 -23 -9 -34 -20z m55 -30 c0 -16 -6 -26 -19 -28
-25 -5 -39 12 -31 38 10 31 50 24 50 -10z"/>
<path d="M1347 363 c-11 -10 -8 -93 2 -93 5 0 11 12 13 28 l3 27 16 -29 16
-30 16 30 16 29 1 -27 c0 -16 5 -28 10 -28 6 0 10 23 10 50 0 59 -14 64 -36
13 l-17 -38 -16 37 c-16 38 -22 44 -34 31z"/>
<path d="M1581 318 c1 -29 4 -43 6 -30 5 27 20 29 28 2 9 -28 23 -25 31 6 7
27 19 22 27 -11 3 -11 5 4 6 33 1 58 -10 67 -29 22 -7 -16 -16 -30 -20 -30 -4
0 -13 14 -20 30 -19 45 -30 36 -29 -22z"/>
<path d="M1810 320 c0 -49 1 -50 31 -50 17 0 28 4 24 10 -3 6 -13 10 -21 10
-8 0 -14 5 -14 10 0 6 7 10 15 10 8 0 15 5 15 10 0 6 -7 10 -15 10 -8 0 -15 5
-15 10 0 6 9 10 21 10 11 0 17 5 14 10 -3 6 -17 10 -31 10 -22 0 -24 -4 -24
-50z"/>
<path d="M1990 320 c0 -27 5 -50 10 -50 6 0 10 10 10 23 l1 22 18 -22 c24 -29
35 -30 21 -2 -9 15 -8 24 1 35 16 19 -5 44 -37 44 -22 0 -24 -4 -24 -50z m48
18 c-6 -18 -28 -21 -28 -4 0 9 7 16 16 16 9 0 14 -5 12 -12z"/>
<path d="M2198 359 c-25 -14 -23 -65 2 -79 22 -12 60 -5 60 11 0 5 -10 7 -23
4 -32 -8 -55 18 -36 41 8 10 21 13 36 9 26 -6 32 9 7 19 -21 8 -26 7 -46 -5z"/>
<path d="M2390 320 c0 -49 1 -50 31 -50 17 0 28 4 24 10 -3 6 -13 10 -21 10
-8 0 -14 5 -14 10 0 6 7 10 15 10 8 0 15 5 15 10 0 6 -7 10 -15 10 -8 0 -15 5
-15 10 0 6 9 10 21 10 11 0 17 5 14 10 -3 6 -17 10 -31 10 -22 0 -24 -4 -24
-50z"/>
</g>
</svg>
